<svg width="24" height="24" viewBox="0 0 24 24" fill="none" xmlns="http://www.w3.org/2000/svg">
  <defs>
    <radialGradient id="hp-body" cx="0.35" cy="0.25" r="0.95">
      <stop offset="0" stop-color="#FFE4F1"/>
      <stop offset="0.4" stop-color="#FF6FBF"/>
      <stop offset="0.85" stop-color="#E91E7C"/>
      <stop offset="1" stop-color="#8A0E4E"/>
    </radialGradient>
    <radialGradient id="hp-glow" cx="0.5" cy="0.5" r="0.6">
      <stop offset="0" stop-color="#FF4FA3" stop-opacity="0.35"/>
      <stop offset="1" stop-color="#FF4FA3" stop-opacity="0"/>
    </radialGradient>
  </defs>
  <!-- Glow halo -->
  <circle cx="12" cy="13" r="10" fill="url(#hp-glow)"/>
  <!-- Heart shape — rounded classic silhouette -->
  <path d="M12 21C12 21 3 15.2 3 9.5C3 6.46 5.46 4 8.5 4C10.27 4 11.5 4.9 12 6C12.5 4.9 13.73 4 15.5 4C18.54 4 21 6.46 21 9.5C21 15.2 12 21 12 21Z"
    fill="url(#hp-body)"
    stroke="#8A0E4E" stroke-width="1.1" stroke-linejoin="round"/>
  <!-- Gloss highlight -->
  <ellipse cx="8.4" cy="9" rx="2" ry="1.3" fill="#FFF" opacity="0.55" transform="rotate(-30 8.4 9)"/>
  <!-- Small sparkle -->
  <circle cx="19.5" cy="5" r="0.8" fill="#FFE4F1"/>
  <circle cx="19.5" cy="5" r="1.5" fill="#FFE4F1" opacity="0.4"/>
</svg>
